<svg width="24" height="24" viewBox="0 0 24 24" fill="none" xmlns="http://www.w3.org/2000/svg">
<path d="M3 15.7143V8H4.6875L6.375 10.8361L8.0625 8H9.75V15.7143H8.0625V11.2899L6.375 14.1261L4.6875 11.2899V15.7143H3Z" fill="#60A5FA"/>
<path d="M11 15.7143V8H12.7143C14.7656 8 16 9.52036 16 11.8571C16 14.1939 14.7656 15.7143 12.7143 15.7143H11ZM12.7143 14.0001C13.7439 14.0001 14.2857 13.1304 14.2857 11.8571C14.2857 10.5839 13.7439 9.71429 12.7143 9.71429H12.7143V14.0001Z" fill="#A1A1AA"/>
<path d="M21 10.1429C20.5714 9.85714 20.1143 9.71429 19.6286 9.71429C18.513 9.71429 17.8571 10.5561 17.8571 11.8571C17.8571 13.1582 18.513 14.0001 19.6286 14.0001C20.1143 14.0001 20.5714 13.8572 21 13.5715V15.2858C20.5429 15.5715 19.9714 15.7143 19.2857 15.7143C17.2344 15.7143 16 14.1939 16 11.8571C16 9.52036 17.2344 8 19.2857 8C19.9714 8 20.5429 8.14286 21 8.42857V10.1429Z" fill="#A1A1AA"/>
</svg>
